# Blender v2.79 (sub 6) OBJ File: ''
# www.blender.org
mtllib cube.mtl
o Cube.001
v 1.018225 -2.000000 -2.638791
v 2.638791 -2.000000 1.018225
v -1.018225 -2.000000 2.638791
v -2.638791 -2.000000 -1.018225
v 1.018226 2.000000 -2.638789
v -2.638791 2.000000 -1.018225
v -1.018225 2.000000 2.638791
v 2.638790 2.000000 1.018227
vn -0.0000 -1.0000 0.0000
vn 0.0000 1.0000 0.0000
vn 0.9143 0.0000 -0.4051
vn 0.4051 -0.0000 0.9143
vn -0.9143 -0.0000 0.4051
vn -0.4051 0.0000 -0.9143
usemtl Cube-mtl
s 1
f 1//1 2//1 3//1 4//1
f 5//2 6//2 7//2 8//2
f 1//3 5//3 8//3 2//3
f 2//4 8//4 7//4 3//4
f 3//5 7//5 6//5 4//5
f 5//6 1//6 4//6 6//6
